<?xml version="1.0" encoding="utf-8"?>
<!-- Generator: Adobe Illustrator 22.1.0, SVG Export Plug-In . SVG Version: 6.00 Build 0)  -->
<svg version="1.1" id="Layer_1" xmlns="http://www.w3.org/2000/svg" xmlns:xlink="http://www.w3.org/1999/xlink" x="0px" y="0px"
	 viewBox="0 0 784.7 770.2" style="enable-background:new 0 0 784.7 770.2;" xml:space="preserve">
<style type="text/css">
	.st0{display:none;fill:#FFFFFF;}
	.st1{fill:#CE1515;}
</style>
<g>
	<path class="st0" d="M-77.3,856.9c0-312,0-624,0-936c312,0,624,0,936,0c0,312,0,624,0,936C546.7,856.9,234.7,856.9-77.3,856.9z
		 M16.4,389c0.2,206.9,166.7,371.6,369,374.2c210.9,2.7,377-166.3,379.7-368.6c2.8-211.6-167.9-380.2-374.7-380
		C184.4,14.7,16.1,182.7,16.4,389z"/>
	<path class="st1" d="M16.4,389c-0.3-206.3,168-374.3,373.9-374.4C597.1,14.4,767.8,183,765,394.6
		c-2.7,202.3-168.7,371.3-379.7,368.6C183.1,760.6,16.6,595.9,16.4,389z M391.5,345.4C340.7,294.4,290,243.6,239.6,193
		c-16.4,16.3-32.5,32.3-48.8,48.5c50.8,50.7,101.5,101.5,153,152.9c-51,50.9-101.8,101.7-152.5,152.3c16,16,32,32,48.4,48.3
		c50.6-50.7,101.3-101.4,152.3-152.5c50.9,50.9,101.6,101.7,151.9,152c16.4-16.3,32.5-32.4,49.4-49.1
		c-50.7-50.5-101.5-101.2-152.8-152.3c50.9-50.8,101.6-101.5,151.8-151.6c-16.1-16.2-32.2-32.3-48.5-48.7
		C493.4,243.4,442.7,294.1,391.5,345.4z"/>
	<path class="st0" d="M391.5,345.4c51.2-51.2,101.9-102,152.3-152.5c16.4,16.4,32.4,32.5,48.5,48.7
		c-50.2,50.1-101,100.8-151.8,151.6c51.3,51.2,102.1,101.8,152.8,152.3c-16.8,16.7-32.9,32.7-49.4,49.1
		c-50.3-50.4-101-101.1-151.9-152c-51,51-101.7,101.8-152.3,152.5c-16.4-16.3-32.4-32.3-48.4-48.3
		c50.6-50.6,101.5-101.4,152.5-152.3c-51.5-51.5-102.3-102.2-153-152.9c16.3-16.2,32.5-32.2,48.8-48.5
		C290,243.6,340.7,294.4,391.5,345.4z"/>
</g>
</svg>
